# xmcd CD database file
#
# Track frame offsets:
#	150
#	14920
#	28415
#	39702
#	53527
#	68569
#	84746
#	97834
#	111614
#	125785
#	138521
#	152978
#	166708
#	177393
#	189925
#	201860
#	215663
#	229697
#	241112
#	254170
#	268436
#	280616
#	295472
#	309413
#	319870
#
# Disc length: 4454 seconds
#
# Revision: 0
# Processed by: cddbd v1.5.2PL0 Copyright (c) Steve Scherf et al.
# Submitted via: CDex 1.70beta2
#
DISCID=82116419
DTITLE=Doris Day - Autograph Collection CD 1
DYEAR=2006
DGENRE=Jazz
TTITLE0=The Deadwood Stage (Whip-Crack-Away!)
TTITLE1=When I Fall In Love
TTITLE2=Ready, Willing And Able
TTITLE3=Doris Day and Frank Sinatra - Let's Take An Old Fashioned Walk
TTITLE4=It Could Happen To You
TTITLE5=Shaking The Blues Away
TTITLE6=If I Give My Heart To You
TTITLE7=I May Be Wrong
TTITLE8=Put 'Em In A Box, Tie 'Em With A Ribbon (And Throw 'Em In The Deep Blue Sea)
TTITLE9=Again
TTITLE10=Doris Day and Dinah Shore - It's Better To Conceal Than Reveal
TTITLE11=The Very Thought Of You
TTITLE12=Shanghai
TTITLE13=I'm Confessin' (That I Love You)
TTITLE14=Powder Your Face With Sunshine (Smile! Smile! Smile!)
TTITLE15=The Black Hills Of Dakota
TTITLE16=Aren't You Glad You're You?
TTITLE17=On Moonlight Bay
TTITLE18=Lullaby Of Broadway
TTITLE19=Day By Day
TTITLE20=Betwitched
TTITLE21=Sentimental Journey
TTITLE22=Love Somebody
TTITLE23=Love Me Or Leave Me
TTITLE24=With A Song In My Heart
EXTD=YEAR: 2006
EXTT0=
EXTT1=
EXTT2=
EXTT3=
EXTT4=
EXTT5=
EXTT6=
EXTT7=
EXTT8=
EXTT9=
EXTT10=
EXTT11=
EXTT12=
EXTT13=
EXTT14=
EXTT15=
EXTT16=
EXTT17=
EXTT18=
EXTT19=
EXTT20=
EXTT21=
EXTT22=
EXTT23=
EXTT24=
PLAYORDER=
